<svg width="187" height="114" viewBox="0 0 187 114" fill="none" xmlns="http://www.w3.org/2000/svg">
<path opacity="0.25" d="M93.5321 114C138.107 114 174.243 105.614 174.243 95.2689C174.243 84.924 138.107 76.5378 93.5321 76.5378C48.9568 76.5378 12.8214 84.924 12.8214 95.2689C12.8214 105.614 48.9568 114 93.5321 114Z" fill="#042030"/>
<path d="M156.742 4.87378L93.5321 26.4177L30.2585 4.87378L0 48.7289L93.5321 80.6292L187 48.7289L156.742 4.87378Z" fill="#4E2999"/>
<path opacity="0.45" d="M11.0264 46.9388L88.5958 76.5378L61.9273 50.1992C61.9273 50.1992 18.1423 39.651 11.0264 46.9388Z" fill="#240F4F"/>
<path opacity="0.45" d="M176.038 46.9388L98.4683 76.5378L125.137 50.1992C125.073 50.1992 168.858 39.651 176.038 46.9388Z" fill="#240F4F"/>
<path d="M93.5321 80.6293L0 48.7289V52.8842L93.5321 84.7846L187 52.8842V48.7289L93.5321 80.6293Z" fill="#994EF8"/>
<path d="M43.7209 99.8078L54.555 71.4874L89.4292 83.3782L43.7209 99.8078Z" fill="#3B1E77"/>
<path opacity="0.45" d="M46.734 91.625L89.4292 83.3782L54.555 71.4874L46.734 91.625Z" fill="#3B1E77"/>
<path d="M93.5321 81.9078L43.7209 99.8078L47.4391 103.708L93.5321 87.3418L139.561 103.708L143.343 99.8078L93.5321 81.9078Z" fill="#994EF8"/>
<path d="M143.343 99.8078L132.445 71.4874L97.5708 83.3782L143.343 99.8078Z" fill="#3B1E77"/>
<path opacity="0.45" d="M140.266 91.625L97.5708 83.3782L132.445 71.4874L140.266 91.625Z" fill="#3B1E77"/>
<path d="M93.532 87.3418C95.4085 87.3418 96.9297 85.8248 96.9297 83.9535C96.9297 82.0823 95.4085 80.5653 93.532 80.5653C91.6556 80.5653 90.1344 82.0823 90.1344 83.9535C90.1344 85.8248 91.6556 87.3418 93.532 87.3418Z" fill="white" fill-opacity="0.5"/>
<path d="M154.049 4.87378L93.5321 34.9203L33.0151 4.87378C30.2585 8.51771 8.07748 45.4045 8.07748 45.4045C8.33391 45.4045 8.52623 45.4685 8.78266 45.4685C64.4275 51.0303 79.8773 68.4828 85.0058 72.7021C90.1344 76.9853 93.5962 76.5378 93.5962 76.5378C93.5962 76.5378 97.0579 76.9853 102.187 72.7021C107.315 68.4828 122.765 51.0303 178.41 45.4685C178.666 45.4685 178.858 45.4045 179.115 45.4045C178.987 45.4045 156.742 8.58164 154.049 4.87378Z" fill="#F5B304"/>
<path d="M178.987 45.4045C178.73 45.4045 178.538 45.4685 178.281 45.4685C122.637 51.0303 107.187 68.4828 102.058 72.7021C96.9297 76.9853 93.4679 76.5378 93.4679 76.5378C93.4679 76.5378 90.0062 76.9853 84.8776 72.7021C79.7491 68.4828 64.2993 51.0303 8.65444 45.4685C8.39801 45.4685 8.20569 45.4045 7.94926 45.4045C7.50051 46.1078 7.94926 46.6192 7.94926 46.6192C64.1711 52.0531 79.108 69.5696 84.2366 73.8528C89.3651 78.0721 93.4038 77.7525 93.4038 77.7525C93.4038 77.7525 97.4426 78.0721 102.571 73.8528C107.7 69.6335 122.637 52.117 178.858 46.6192C178.987 46.6192 179.435 46.1078 178.987 45.4045Z" fill="#994EF8"/>
<path d="M151.741 1.3577C120.778 -6.05802 93.468 19.3217 93.468 19.3217C93.468 19.3217 66.1584 -6.05802 35.1947 1.3577C35.1947 1.3577 26.4121 14.7827 14.2959 37.6052C14.2959 37.6052 75.2616 44.4456 93.468 69.9532C111.674 44.4456 172.64 37.6052 172.64 37.6052C160.524 14.7827 151.741 1.3577 151.741 1.3577Z" fill="#F5EFFB"/>
<path d="M172.64 37.6052C172.64 37.6052 111.674 44.4456 93.4679 69.9531C75.3257 44.4456 14.3599 37.6052 14.3599 37.6052C14.3599 37.6052 14.3599 39.651 10.9623 43.6785C10.9623 43.6785 66.2866 47.642 86.4162 70.5285C91.1601 75.8985 93.4679 75.2592 93.4679 75.2592C93.4679 75.2592 95.8399 75.8985 100.52 70.5285C120.585 47.642 175.974 43.6785 175.974 43.6785C172.64 39.587 172.64 37.6052 172.64 37.6052Z" fill="#DFCBF4"/>
<path d="M148.279 4.0427C148.279 4.0427 125.137 -1.83874 93.468 22.6459C61.8632 -1.77482 38.6565 4.0427 38.6565 4.0427L23.0144 34.3449C70.5818 37.6053 93.468 61.5785 93.468 61.5785C93.468 61.5785 116.354 37.6053 163.922 34.3449L148.279 4.0427ZM93.5321 58.7017C93.5321 58.7017 72.1203 36.8381 26.7326 32.5549L39.8745 5.32127C39.8745 5.32127 62.6325 0.910196 93.5321 24.0524C124.432 0.910196 147.19 5.32127 147.19 5.32127L160.332 32.5549C114.944 36.8381 93.5321 58.7017 93.5321 58.7017Z" fill="#863ED5"/>
<path opacity="0.2" d="M99.3658 45.4645C107.913 39.1782 134.625 25.267 152.575 27.1849" stroke="#863ED5" stroke-width="3" stroke-linecap="round"/>
<path opacity="0.2" d="M99.3658 27.8242C106.952 21.9009 126.675 10.2954 144.882 11.2592" stroke="#863ED5" stroke-width="3" stroke-linecap="round"/>
<path opacity="0.2" d="M99.3658 36.7742C107.593 30.3953 128.983 17.8971 148.728 18.935" stroke="#863ED5" stroke-width="3" stroke-linecap="round"/>
<path opacity="0.2" d="M88.4676 45.4645C79.92 39.1782 53.2088 25.267 35.2588 27.1849" stroke="#863ED5" stroke-width="3" stroke-linecap="round"/>
<path opacity="0.2" d="M88.4676 27.8242C80.8816 21.9009 61.158 10.2954 42.9516 11.2592" stroke="#863ED5" stroke-width="3" stroke-linecap="round"/>
<path opacity="0.2" d="M88.4676 36.7742C80.2405 30.3953 58.8502 17.8971 39.1052 18.935" stroke="#863ED5" stroke-width="3" stroke-linecap="round"/>
<path d="M93.532 19.3217C93.532 19.3217 94.1731 17.0842 95.3911 17.7234C95.3911 17.7234 94.6219 53.971 95.904 68.0992C96.2245 71.6153 99.3017 76.4099 100.52 78.1999H98.917L98.4683 79.6703C98.4683 79.6703 93.7244 71.6792 93.532 68.5467C92.5704 54.4824 93.0833 22.7099 93.532 19.3217Z" fill="#54DAF5"/>
</svg>
